<svg width="1200" height="720" viewBox="0 0 1200 720" fill="none" xmlns="http://www.w3.org/2000/svg">
  <rect width="1200" height="720" fill="#090B11"/>
  <circle cx="1030" cy="110" r="220" fill="#7DD3FC" fill-opacity="0.12"/>
  <rect x="48" y="48" width="1104" height="624" rx="36" fill="url(#paint0_linear)" stroke="#1E293B"/>
  <rect x="96" y="144" width="430" height="350" rx="24" fill="#0F172A" stroke="#334155"/>
  <rect x="128" y="186" width="224" height="20" rx="10" fill="#7DD3FC" fill-opacity="0.9"/>
  <rect x="128" y="232" width="320" height="14" rx="7" fill="#475569"/>
  <rect x="128" y="268" width="272" height="14" rx="7" fill="#334155"/>
  <rect x="128" y="332" width="366" height="84" rx="18" fill="#111827" stroke="#334155"/>
  <rect x="676" y="152" width="360" height="74" rx="20" fill="#082F49" stroke="#38BDF8"/>
  <rect x="676" y="256" width="360" height="74" rx="20" fill="#0F172A" stroke="#334155"/>
  <rect x="676" y="360" width="360" height="74" rx="20" fill="#0F172A" stroke="#334155"/>
  <text x="96" y="102" fill="#7DD3FC" font-family="Segoe UI, Arial, sans-serif" font-size="24" letter-spacing="4">INPUT DESIGN</text>
  <text x="96" y="568" fill="#F8FAFC" font-family="Segoe UI, Arial, sans-serif" font-size="54" font-weight="700">UIより先に入力責任を設計する</text>
  <text x="96" y="622" fill="#94A3B8" font-family="Segoe UI, Arial, sans-serif" font-size="24">誰が、いつ、何を持つのかを先に決める</text>
  <defs>
    <linearGradient id="paint0_linear" x1="76" y1="70" x2="1118" y2="654" gradientUnits="userSpaceOnUse">
      <stop stop-color="#111827" stop-opacity="0.98"/>
      <stop offset="1" stop-color="#0F172A" stop-opacity="0.74"/>
    </linearGradient>
  </defs>
</svg>