<svg width="1200" height="720" viewBox="0 0 1200 720" fill="none" xmlns="http://www.w3.org/2000/svg">
  <rect width="1200" height="720" fill="#090B11"/>
  <circle cx="1020" cy="580" r="234" fill="#34D399" fill-opacity="0.1"/>
  <rect x="48" y="48" width="1104" height="624" rx="36" fill="url(#paint0_linear)" stroke="#1E293B"/>
  <rect x="108" y="148" width="420" height="404" rx="28" fill="#0F172A" stroke="#334155"/>
  <rect x="152" y="194" width="174" height="18" rx="9" fill="#6EE7B7"/>
  <rect x="152" y="236" width="302" height="14" rx="7" fill="#475569"/>
  <rect x="152" y="294" width="332" height="50" rx="14" fill="#111827" stroke="#334155"/>
  <rect x="152" y="370" width="332" height="50" rx="14" fill="#111827" stroke="#334155"/>
  <rect x="152" y="446" width="332" height="50" rx="14" fill="#052E2B" stroke="#34D399"/>
  <rect x="664" y="176" width="384" height="92" rx="22" fill="#052E2B" stroke="#34D399"/>
  <rect x="664" y="312" width="384" height="92" rx="22" fill="#0F172A" stroke="#334155"/>
  <rect x="664" y="448" width="384" height="92" rx="22" fill="#0F172A" stroke="#334155"/>
  <text x="96" y="102" fill="#6EE7B7" font-family="Segoe UI, Arial, sans-serif" font-size="24" letter-spacing="4">PROJECT / INVENTORY ANALYSIS</text>
  <text x="96" y="614" fill="#F8FAFC" font-family="Segoe UI, Arial, sans-serif" font-size="52" font-weight="700">在庫リスト作成・過剰在庫検出ツール</text>
  <text x="96" y="662" fill="#94A3B8" font-family="Segoe UI, Arial, sans-serif" font-size="24">理論所要量と実発注量を比較し、過剰在庫候補を洗い出す</text>
  <defs>
    <linearGradient id="paint0_linear" x1="74" y1="70" x2="1118" y2="656" gradientUnits="userSpaceOnUse">
      <stop stop-color="#111827" stop-opacity="0.98"/>
      <stop offset="1" stop-color="#052E2B" stop-opacity="0.32"/>
    </linearGradient>
  </defs>
</svg>
