<svg width="1200" height="720" viewBox="0 0 1200 720" fill="none" xmlns="http://www.w3.org/2000/svg">
  <rect width="1200" height="720" fill="#090B11"/>
  <circle cx="1020" cy="126" r="210" fill="#38BDF8" fill-opacity="0.12"/>
  <rect x="48" y="48" width="1104" height="624" rx="36" fill="url(#paint0_linear)" stroke="#1E293B"/>
  <rect x="112" y="162" width="430" height="396" rx="28" fill="#0F172A" stroke="#334155"/>
  <circle cx="252" cy="294" r="84" fill="#082F49" stroke="#38BDF8"/>
  <path d="M252 248C275.196 248 294 266.804 294 290C294 313.196 275.196 332 252 332C228.804 332 210 313.196 210 290C210 266.804 228.804 248 252 248Z" fill="#0F172A" stroke="#7DD3FC"/>
  <rect x="376" y="242" width="120" height="18" rx="9" fill="#7DD3FC"/>
  <rect x="376" y="286" width="110" height="14" rx="7" fill="#475569"/>
  <rect x="376" y="356" width="122" height="50" rx="14" fill="#111827" stroke="#334155"/>
  <rect x="674" y="182" width="370" height="78" rx="20" fill="#0C4A6E" stroke="#38BDF8"/>
  <rect x="674" y="292" width="370" height="78" rx="20" fill="#0F172A" stroke="#334155"/>
  <rect x="674" y="402" width="370" height="78" rx="20" fill="#0F172A" stroke="#334155"/>
  <text x="96" y="102" fill="#7DD3FC" font-family="Segoe UI, Arial, sans-serif" font-size="24" letter-spacing="4">PROJECT / AI TRIAGE</text>
  <text x="96" y="616" fill="#F8FAFC" font-family="Segoe UI, Arial, sans-serif" font-size="54" font-weight="700">AI問い合わせ整理アシスタント</text>
  <text x="96" y="664" fill="#94A3B8" font-family="Segoe UI, Arial, sans-serif" font-size="24">曖昧な相談を分類・補足し、人が判断しやすい形へ整える</text>
  <defs>
    <linearGradient id="paint0_linear" x1="74" y1="68" x2="1118" y2="656" gradientUnits="userSpaceOnUse">
      <stop stop-color="#0F172A" stop-opacity="0.98"/>
      <stop offset="1" stop-color="#082F49" stop-opacity="0.42"/>
    </linearGradient>
  </defs>
</svg>