<svg width="1200" height="720" viewBox="0 0 1200 720" fill="none" xmlns="http://www.w3.org/2000/svg">
  <rect width="1200" height="720" fill="#090B11"/>
  <circle cx="180" cy="118" r="210" fill="#A78BFA" fill-opacity="0.1"/>
  <rect x="48" y="48" width="1104" height="624" rx="36" fill="url(#paint0_linear)" stroke="#1E293B"/>
  <rect x="112" y="152" width="430" height="396" rx="28" fill="#0F172A" stroke="#334155"/>
  <rect x="160" y="194" width="176" height="18" rx="9" fill="#C4B5FD"/>
  <rect x="160" y="236" width="288" height="14" rx="7" fill="#475569"/>
  <rect x="160" y="296" width="336" height="62" rx="16" fill="#111827" stroke="#334155"/>
  <rect x="160" y="380" width="336" height="62" rx="16" fill="#111827" stroke="#334155"/>
  <rect x="160" y="464" width="336" height="36" rx="12" fill="#312E81" stroke="#8B5CF6"/>
  <rect x="670" y="178" width="378" height="92" rx="22" fill="#312E81" stroke="#8B5CF6"/>
  <rect x="670" y="312" width="378" height="92" rx="22" fill="#0F172A" stroke="#334155"/>
  <rect x="670" y="446" width="378" height="92" rx="22" fill="#0F172A" stroke="#334155"/>
  <text x="96" y="102" fill="#C4B5FD" font-family="Segoe UI, Arial, sans-serif" font-size="24" letter-spacing="4">PROJECT / ORDER AUTOMATION</text>
  <text x="96" y="614" fill="#F8FAFC" font-family="Segoe UI, Arial, sans-serif" font-size="52" font-weight="700">注文書自動生成ツール</text>
  <text x="96" y="662" fill="#94A3B8" font-family="Segoe UI, Arial, sans-serif" font-size="24">テンプレート複製から書式統一まで、月次注文書作成を標準化する</text>
  <defs>
    <linearGradient id="paint0_linear" x1="74" y1="70" x2="1118" y2="656" gradientUnits="userSpaceOnUse">
      <stop stop-color="#111827" stop-opacity="0.98"/>
      <stop offset="1" stop-color="#312E81" stop-opacity="0.34"/>
    </linearGradient>
  </defs>
</svg>
