<svg width="1200" height="720" viewBox="0 0 1200 720" fill="none" xmlns="http://www.w3.org/2000/svg">
  <rect width="1200" height="720" fill="#090B11"/>
  <circle cx="1032" cy="112" r="220" fill="#F59E0B" fill-opacity="0.12"/>
  <rect x="48" y="48" width="1104" height="624" rx="36" fill="url(#paint0_linear)" stroke="#1E293B"/>
  <rect x="116" y="156" width="420" height="392" rx="28" fill="#0F172A" stroke="#334155"/>
  <rect x="168" y="194" width="182" height="18" rx="9" fill="#FBBF24"/>
  <rect x="168" y="238" width="286" height="14" rx="7" fill="#475569"/>
  <rect x="168" y="288" width="318" height="176" rx="16" fill="#111827" stroke="#334155"/>
  <path d="M204 326H442" stroke="#F8FAFC" stroke-width="6" stroke-linecap="round" stroke-dasharray="10 10"/>
  <path d="M204 362H416" stroke="#CBD5E1" stroke-width="6" stroke-linecap="round" stroke-dasharray="10 10"/>
  <path d="M204 398H386" stroke="#94A3B8" stroke-width="6" stroke-linecap="round" stroke-dasharray="10 10"/>
  <rect x="670" y="178" width="378" height="92" rx="22" fill="#78350F" stroke="#F59E0B"/>
  <rect x="670" y="312" width="378" height="92" rx="22" fill="#0F172A" stroke="#334155"/>
  <rect x="670" y="446" width="378" height="92" rx="22" fill="#0F172A" stroke="#334155"/>
  <text x="96" y="102" fill="#FBBF24" font-family="Segoe UI, Arial, sans-serif" font-size="24" letter-spacing="4">PROJECT / FAX OCR</text>
  <text x="96" y="614" fill="#F8FAFC" font-family="Segoe UI, Arial, sans-serif" font-size="52" font-weight="700">FAX OCR発注データ抽出ツール</text>
  <text x="96" y="662" fill="#94A3B8" font-family="Segoe UI, Arial, sans-serif" font-size="24">FAX PDFをOCRで読み取り、必要項目をCSVへ構造化する</text>
  <defs>
    <linearGradient id="paint0_linear" x1="74" y1="70" x2="1118" y2="656" gradientUnits="userSpaceOnUse">
      <stop stop-color="#111827" stop-opacity="0.98"/>
      <stop offset="1" stop-color="#78350F" stop-opacity="0.28"/>
    </linearGradient>
  </defs>
</svg>
