<svg width="1200" height="720" viewBox="0 0 1200 720" fill="none" xmlns="http://www.w3.org/2000/svg">
  <rect width="1200" height="720" fill="#090B11"/>
  <circle cx="174" cy="126" r="196" fill="#A78BFA" fill-opacity="0.1"/>
  <rect x="48" y="48" width="1104" height="624" rx="36" fill="url(#paint0_linear)" stroke="#1E293B"/>
  <rect x="108" y="146" width="440" height="420" rx="28" fill="#0F172A" stroke="#334155"/>
  <rect x="152" y="194" width="152" height="18" rx="9" fill="#C4B5FD"/>
  <rect x="152" y="240" width="280" height="14" rx="7" fill="#475569"/>
  <rect x="152" y="308" width="350" height="88" rx="18" fill="#111827" stroke="#334155"/>
  <rect x="152" y="430" width="350" height="88" rx="18" fill="#111827" stroke="#334155"/>
  <rect x="672" y="176" width="372" height="90" rx="22" fill="#312E81" stroke="#8B5CF6"/>
  <rect x="672" y="304" width="372" height="90" rx="22" fill="#0F172A" stroke="#334155"/>
  <rect x="672" y="432" width="372" height="90" rx="22" fill="#0F172A" stroke="#334155"/>
  <text x="96" y="102" fill="#C4B5FD" font-family="Segoe UI, Arial, sans-serif" font-size="24" letter-spacing="4">PROJECT / KNOWLEDGE BASE</text>
  <text x="96" y="614" fill="#F8FAFC" font-family="Segoe UI, Arial, sans-serif" font-size="54" font-weight="700">改善ナレッジベース</text>
  <text x="96" y="662" fill="#94A3B8" font-family="Segoe UI, Arial, sans-serif" font-size="24">小さな改善を再利用可能な知識として蓄積する</text>
  <defs>
    <linearGradient id="paint0_linear" x1="74" y1="70" x2="1118" y2="656" gradientUnits="userSpaceOnUse">
      <stop stop-color="#111827" stop-opacity="0.98"/>
      <stop offset="1" stop-color="#1E1B4B" stop-opacity="0.42"/>
    </linearGradient>
  </defs>
</svg>