<svg width="1200" height="720" viewBox="0 0 1200 720" fill="none" xmlns="http://www.w3.org/2000/svg">
  <rect width="1200" height="720" fill="#090B11"/>
  <circle cx="176" cy="118" r="206" fill="#38BDF8" fill-opacity="0.1"/>
  <rect x="48" y="48" width="1104" height="624" rx="36" fill="url(#paint0_linear)" stroke="#1E293B"/>
  <rect x="106" y="150" width="430" height="398" rx="28" fill="#0F172A" stroke="#334155"/>
  <rect x="154" y="198" width="184" height="18" rx="9" fill="#7DD3FC"/>
  <rect x="154" y="242" width="294" height="14" rx="7" fill="#475569"/>
  <rect x="154" y="292" width="210" height="62" rx="18" fill="#082F49" stroke="#38BDF8"/>
  <rect x="292" y="378" width="194" height="62" rx="18" fill="#111827" stroke="#334155"/>
  <rect x="154" y="462" width="248" height="40" rx="12" fill="#0B1120" stroke="#334155"/>
  <rect x="664" y="178" width="384" height="94" rx="22" fill="#082F49" stroke="#38BDF8"/>
  <rect x="664" y="314" width="384" height="94" rx="22" fill="#0F172A" stroke="#334155"/>
  <rect x="664" y="450" width="384" height="94" rx="22" fill="#0F172A" stroke="#334155"/>
  <text x="96" y="102" fill="#7DD3FC" font-family="Segoe UI, Arial, sans-serif" font-size="24" letter-spacing="4">CONCEPT DEMO / AI MANUAL CHAT</text>
  <text x="96" y="614" fill="#F8FAFC" font-family="Segoe UI, Arial, sans-serif" font-size="52" font-weight="700">社内マニュアル検索AI UIモック</text>
  <text x="96" y="662" fill="#94A3B8" font-family="Segoe UI, Arial, sans-serif" font-size="24">AI回答と参照元を同時に確認できる業務向け検索UIの試作</text>
  <defs>
    <linearGradient id="paint0_linear" x1="74" y1="70" x2="1118" y2="656" gradientUnits="userSpaceOnUse">
      <stop stop-color="#111827" stop-opacity="0.98"/>
      <stop offset="1" stop-color="#082F49" stop-opacity="0.32"/>
    </linearGradient>
  </defs>
</svg>
