<svg width="1280" height="760" viewBox="0 0 1280 760" fill="none" xmlns="http://www.w3.org/2000/svg">
  <rect width="1280" height="760" fill="#081019"/>
  <rect x="32" y="32" width="1216" height="696" rx="28" fill="url(#bg)" stroke="#203143"/>
  <rect x="72" y="78" width="1136" height="56" rx="16" fill="#0D1724" stroke="#27384D"/>
  <rect x="96" y="96" width="180" height="18" rx="9" fill="#7DD3FC"/>
  <rect x="290" y="96" width="112" height="18" rx="9" fill="#334155"/>
  <rect x="866" y="92" width="140" height="28" rx="14" fill="#0C4A6E" stroke="#38BDF8"/>
  <rect x="1020" y="92" width="150" height="28" rx="14" fill="#111827" stroke="#334155"/>

  <rect x="72" y="160" width="822" height="520" rx="22" fill="#0B1320" stroke="#233448"/>
  <rect x="920" y="160" width="288" height="520" rx="22" fill="#0C1421" stroke="#233448"/>

  <rect x="98" y="188" width="770" height="38" rx="10" fill="#0F1B2B"/>
  <rect x="112" y="200" width="112" height="14" rx="7" fill="#7DD3FC"/>
  <rect x="246" y="200" width="92" height="14" rx="7" fill="#334155"/>
  <rect x="360" y="200" width="136" height="14" rx="7" fill="#334155"/>
  <rect x="702" y="196" width="138" height="22" rx="11" fill="#0C4A6E"/>

  <rect x="98" y="246" width="770" height="394" rx="18" fill="#09111C" stroke="#172433"/>
  <rect x="112" y="266" width="742" height="28" rx="8" fill="#0E1826"/>
  <rect x="112" y="306" width="742" height="1" fill="#1E2D40"/>
  <rect x="112" y="350" width="742" height="1" fill="#1E2D40"/>
  <rect x="112" y="394" width="742" height="1" fill="#1E2D40"/>
  <rect x="112" y="438" width="742" height="1" fill="#1E2D40"/>
  <rect x="112" y="482" width="742" height="1" fill="#1E2D40"/>
  <rect x="112" y="526" width="742" height="1" fill="#1E2D40"/>
  <rect x="112" y="570" width="742" height="1" fill="#1E2D40"/>

  <rect x="118" y="272" width="154" height="16" rx="5" fill="#DCEBFB"/>
  <rect x="294" y="272" width="120" height="16" rx="5" fill="#DCEBFB"/>
  <rect x="434" y="272" width="112" height="16" rx="5" fill="#DCEBFB"/>
  <rect x="570" y="272" width="98" height="16" rx="5" fill="#DCEBFB"/>
  <rect x="690" y="272" width="92" height="16" rx="5" fill="#DCEBFB"/>
  <rect x="804" y="272" width="44" height="16" rx="5" fill="#DCEBFB"/>

  <g opacity="0.96">
    <rect x="122" y="318" width="146" height="12" rx="4" fill="#CBD5E1"/>
    <rect x="294" y="318" width="96" height="12" rx="4" fill="#64748B"/>
    <rect x="434" y="318" width="104" height="12" rx="4" fill="#64748B"/>
    <rect x="570" y="318" width="84" height="12" rx="4" fill="#38BDF8"/>
    <rect x="690" y="318" width="70" height="12" rx="4" fill="#64748B"/>
    <rect x="804" y="318" width="40" height="12" rx="4" fill="#94A3B8"/>
  </g>
  <g opacity="0.96">
    <rect x="122" y="362" width="138" height="12" rx="4" fill="#CBD5E1"/>
    <rect x="294" y="362" width="102" height="12" rx="4" fill="#64748B"/>
    <rect x="434" y="362" width="110" height="12" rx="4" fill="#64748B"/>
    <rect x="570" y="362" width="120" height="12" rx="4" fill="#38BDF8"/>
    <rect x="690" y="362" width="82" height="12" rx="4" fill="#64748B"/>
    <rect x="804" y="362" width="40" height="12" rx="4" fill="#94A3B8"/>
  </g>
  <g opacity="0.96">
    <rect x="122" y="406" width="154" height="12" rx="4" fill="#CBD5E1"/>
    <rect x="294" y="406" width="96" height="12" rx="4" fill="#64748B"/>
    <rect x="434" y="406" width="120" height="12" rx="4" fill="#64748B"/>
    <rect x="570" y="406" width="104" height="12" rx="4" fill="#38BDF8"/>
    <rect x="690" y="406" width="80" height="12" rx="4" fill="#64748B"/>
    <rect x="804" y="406" width="40" height="12" rx="4" fill="#94A3B8"/>
  </g>
  <g opacity="0.96">
    <rect x="122" y="450" width="132" height="12" rx="4" fill="#CBD5E1"/>
    <rect x="294" y="450" width="110" height="12" rx="4" fill="#64748B"/>
    <rect x="434" y="450" width="92" height="12" rx="4" fill="#64748B"/>
    <rect x="570" y="450" width="134" height="12" rx="4" fill="#38BDF8"/>
    <rect x="690" y="450" width="68" height="12" rx="4" fill="#64748B"/>
    <rect x="804" y="450" width="40" height="12" rx="4" fill="#94A3B8"/>
  </g>
  <g opacity="0.96">
    <rect x="122" y="494" width="140" height="12" rx="4" fill="#CBD5E1"/>
    <rect x="294" y="494" width="102" height="12" rx="4" fill="#64748B"/>
    <rect x="434" y="494" width="108" height="12" rx="4" fill="#64748B"/>
    <rect x="570" y="494" width="88" height="12" rx="4" fill="#38BDF8"/>
    <rect x="690" y="494" width="82" height="12" rx="4" fill="#64748B"/>
    <rect x="804" y="494" width="40" height="12" rx="4" fill="#94A3B8"/>
  </g>

  <rect x="944" y="188" width="240" height="118" rx="18" fill="#101B2A" stroke="#25384C"/>
  <rect x="944" y="330" width="240" height="154" rx="18" fill="#101B2A" stroke="#25384C"/>
  <rect x="944" y="508" width="240" height="148" rx="18" fill="#101B2A" stroke="#25384C"/>

  <text x="968" y="220" fill="#7DD3FC" font-family="Segoe UI, Arial, sans-serif" font-size="18" letter-spacing="2">照合結果サマリ</text>
  <text x="968" y="360" fill="#7DD3FC" font-family="Segoe UI, Arial, sans-serif" font-size="18" letter-spacing="2">部品比率</text>
  <text x="968" y="538" fill="#7DD3FC" font-family="Segoe UI, Arial, sans-serif" font-size="18" letter-spacing="2">確認ポイント</text>

  <text x="968" y="262" fill="#F8FAFC" font-family="Segoe UI, Arial, sans-serif" font-size="40" font-weight="700">3</text>
  <text x="1006" y="262" fill="#CBD5E1" font-family="Segoe UI, Arial, sans-serif" font-size="20">シート出力</text>
  <text x="968" y="286" fill="#94A3B8" font-family="Segoe UI, Arial, sans-serif" font-size="18">照合結果 / 構成別 / 紐付なし</text>

  <rect x="968" y="386" width="192" height="18" rx="9" fill="#0B1320"/>
  <rect x="968" y="386" width="138" height="18" rx="9" fill="#38BDF8"/>
  <rect x="968" y="420" width="192" height="18" rx="9" fill="#0B1320"/>
  <rect x="968" y="420" width="112" height="18" rx="9" fill="#60A5FA"/>
  <rect x="968" y="454" width="192" height="18" rx="9" fill="#0B1320"/>
  <rect x="968" y="454" width="90" height="18" rx="9" fill="#818CF8"/>

  <rect x="968" y="560" width="192" height="14" rx="7" fill="#334155"/>
  <rect x="968" y="594" width="210" height="14" rx="7" fill="#334155"/>
  <rect x="968" y="628" width="176" height="14" rx="7" fill="#334155"/>

  <defs>
    <linearGradient id="bg" x1="76" y1="60" x2="1210" y2="716" gradientUnits="userSpaceOnUse">
      <stop stop-color="#111827" stop-opacity="0.98"/>
      <stop offset="1" stop-color="#0A1320" stop-opacity="0.92"/>
    </linearGradient>
  </defs>
</svg>
