<svg width="1200" height="720" viewBox="0 0 1200 720" fill="none" xmlns="http://www.w3.org/2000/svg">
  <rect width="1200" height="720" fill="#090B11"/>
  <circle cx="160" cy="122" r="202" fill="#60A5FA" fill-opacity="0.1"/>
  <rect x="48" y="48" width="1104" height="624" rx="36" fill="url(#paint0_linear)" stroke="#1E293B"/>
  <rect x="106" y="148" width="458" height="404" rx="28" fill="#0F172A" stroke="#334155"/>
  <path d="M150 456L230 380L310 404L392 260L476 304L520 220" stroke="#7DD3FC" stroke-width="10" stroke-linecap="round" stroke-linejoin="round"/>
  <circle cx="230" cy="380" r="10" fill="#7DD3FC"/>
  <circle cx="392" cy="260" r="10" fill="#7DD3FC"/>
  <rect x="152" y="194" width="184" height="18" rx="9" fill="#7DD3FC"/>
  <rect x="152" y="236" width="280" height="14" rx="7" fill="#475569"/>
  <rect x="654" y="176" width="392" height="94" rx="22" fill="#082F49" stroke="#38BDF8"/>
  <rect x="654" y="312" width="392" height="94" rx="22" fill="#0F172A" stroke="#334155"/>
  <rect x="654" y="448" width="392" height="94" rx="22" fill="#0F172A" stroke="#334155"/>
  <text x="96" y="102" fill="#7DD3FC" font-family="Segoe UI, Arial, sans-serif" font-size="24" letter-spacing="4">PROJECT / KINTONE VISUALIZER</text>
  <text x="96" y="614" fill="#F8FAFC" font-family="Segoe UI, Arial, sans-serif" font-size="52" font-weight="700">Kintone生産実績ビジュアライザー</text>
  <text x="96" y="662" fill="#94A3B8" font-family="Segoe UI, Arial, sans-serif" font-size="24">生産効率の推移をライン別・製品別に追える可視化アプリ</text>
  <defs>
    <linearGradient id="paint0_linear" x1="74" y1="70" x2="1118" y2="656" gradientUnits="userSpaceOnUse">
      <stop stop-color="#111827" stop-opacity="0.98"/>
      <stop offset="1" stop-color="#0F172A" stop-opacity="0.74"/>
    </linearGradient>
  </defs>
</svg>
